<?xml version="1.0" encoding="UTF-8" standalone="no"?>
<svg width="31px" height="38px" viewBox="0 0 31 38" version="1.1" xmlns="http://www.w3.org/2000/svg" xmlns:xlink="http://www.w3.org/1999/xlink">
    <g id="Welcome" stroke="none" stroke-width="1" fill="none" fill-rule="evenodd">
        <g transform="translate(-144.000000, -97.000000)" fill="#FFFFFF">
            <path d="M173.497857,116.037929 L173.371643,115.684752 C173.265357,115.386341 172.984143,115.187399 172.669714,115.187399 L172.298821,115.187399 C169.050464,115.187399 168.351857,114.902399 168.276571,114.866635 C168.213464,114.836458 167.6145,114.516811 165.993643,112.212223 C165.518679,111.558399 164.803464,110.630752 163.741714,109.291811 C163.730643,109.276164 163.688571,109.229223 163.676393,109.214694 L160.128,105.400164 C158.8105,103.984105 157.899321,102.230517 157.494107,100.331635 L156.909536,97.594517 C156.86525,97.3843994 156.7335,97.2033406 156.5475,97.0971641 C156.3615,96.9921053 156.138964,96.97087 155.938571,97.0401641 L155.376143,97.2346347 C154.176,97.6503994 153.244893,98.2762817 152.6105,99.095517 C151.949536,99.9471641 151.615179,100.989929 151.615179,102.19587 C151.615179,103.388399 152.008214,104.649105 152.775464,105.932164 L153.146357,106.573694 C153.151893,106.58487 153.159643,106.596046 153.167393,106.608341 C154.428429,108.728517 155.118179,110.76487 155.220036,112.691694 C152.148821,112.711811 149.761821,113.047105 148.122143,113.695341 C145.541393,114.725811 145,116.431341 145,117.679752 C145,119.163988 145.535857,120.43587 146.590964,121.459635 C146.640786,121.507694 146.690607,121.555752 146.742643,121.601576 L146.620857,121.792694 C146.218964,122.369399 146.01525,122.952811 146.01525,123.528399 C146.01525,124.600223 146.568821,125.486517 147.595143,126.034164 C147.806607,126.141458 148.038,126.233105 148.290429,126.310223 L148.131,126.825458 C148.10775,126.898105 148.096679,127.035576 148.096679,127.111576 C148.096679,128.176694 148.644714,129.04287 149.638929,129.551399 C150.089536,129.782752 150.636464,129.942576 151.293,130.033105 L151.268643,130.494694 C151.268643,131.564282 151.714821,132.460635 152.52525,133.021694 C153.216107,133.501164 154.140571,133.733635 155.355107,133.733635 L155.698321,133.733635 C156.278464,133.733635 156.840893,133.610694 157.370107,133.371517 L157.672357,133.232929 L159.398393,133.700105 C159.990714,133.824164 160.482286,133.834223 160.896357,133.834223 L162.356679,133.781694 C162.562607,133.774988 162.766321,133.715752 162.947893,133.610694 C165.462214,132.144341 167.40525,130.501399 169.030536,128.460576 L172.762714,128.460576 C173.081571,128.460576 173.365,128.257164 173.469071,127.952046 L173.591964,127.593282 C174.234107,125.714517 174.559607,123.865929 174.559607,122.096694 C174.559607,120.044694 174.202,118.006105 173.497857,116.037929 L173.497857,116.037929 Z M149.331143,125.005929 C148.901571,124.935517 148.547286,124.829341 148.271607,124.689635 C147.759,124.415811 147.508786,124.035811 147.508786,123.528399 C147.508786,123.269105 147.621714,122.978517 147.860857,122.634282 L147.978214,122.448752 C148.706714,122.806399 149.516036,122.987458 150.395107,122.988576 L151.101464,122.996399 C151.986071,122.993046 152.859607,122.819811 153.657857,122.456576 L156.284,121.261811 L156.737929,121.416046 C157.548357,121.628399 158.264679,122.113458 158.871393,122.857811 L157.95025,123.269105 C157.939179,123.273576 157.928107,123.279164 157.918143,123.283635 L154.712964,124.715341 C154.126179,124.97687 153.502857,125.10987 152.862929,125.10987 L150.809179,125.10987 C150.272214,125.10987 149.798357,125.077458 149.389821,125.01487 C149.369893,125.010399 149.349964,125.008164 149.331143,125.005929 L149.331143,125.005929 Z M152.148821,128.599164 C152.128893,128.598046 152.107857,128.595811 152.089036,128.595811 C151.326214,128.549988 150.730571,128.419223 150.313179,128.205752 C149.8515,127.969929 149.621214,127.650282 149.593536,127.156282 L149.772893,126.577341 C150.095071,126.604164 150.4405,126.617576 150.809179,126.617576 L152.862929,126.617576 C153.712107,126.617576 154.538036,126.442105 155.316357,126.094517 L158.184964,124.813694 L158.463964,124.983576 C159.061821,125.274164 159.592143,125.685458 160.013964,126.171635 L160.088143,126.267752 L158.847036,126.826576 L158.845929,126.826576 L155.763643,128.215811 C155.174643,128.480694 154.548,128.615929 153.902536,128.615929 L152.753321,128.615929 C152.541857,128.615929 152.340357,128.610341 152.148821,128.599164 L152.148821,128.599164 Z M157.318071,131.74087 C157.307,131.745341 157.295929,131.749811 157.285964,131.755399 L156.75675,131.995694 C156.426821,132.145458 156.060357,132.224811 155.698321,132.224811 L155.355107,132.224811 C154.453893,132.224811 153.804,132.079517 153.37,131.777752 C152.967,131.499458 152.762179,131.068046 152.761071,130.536046 L152.783214,130.123635 L153.902536,130.123635 C154.759464,130.123635 155.589821,129.944811 156.372571,129.592752 L158.983214,128.416988 L159.127143,128.562282 C159.152607,128.58687 159.178071,128.611458 159.206857,128.632694 C159.764857,129.060752 160.199964,129.505576 160.564214,130.028635 L160.659429,130.152694 C160.672714,130.169458 160.684893,130.186223 160.697071,130.202988 L157.318071,131.74087 L157.318071,131.74087 Z M172.229071,126.95287 L168.6685,126.95287 C168.436,126.95287 168.219,127.060164 168.077286,127.245694 C166.538357,129.249635 164.685,130.850105 162.247071,132.277341 L161.100071,132.326517 L160.896357,132.326517 C160.566429,132.326517 160.211036,132.319811 159.831286,132.250517 L161.567286,131.460341 C161.926,131.298282 162.193929,130.969694 162.283607,130.582988 C162.374393,130.195164 162.279179,129.779399 162.028964,129.472046 C161.960321,129.387105 161.900536,129.309988 161.849607,129.240694 C161.847393,129.238458 161.804214,129.182576 161.803107,129.180341 L161.761036,129.127811 C161.416714,128.630458 160.997107,128.173341 160.488929,127.738576 L160.9495,127.530694 C161.304893,127.37087 161.566179,127.061282 161.663607,126.681282 C161.762143,126.302399 161.68575,125.902282 161.452143,125.585988 C161.396786,125.511105 161.193071,125.246223 161.1665,125.213811 C160.773464,124.758929 160.3295,124.366635 159.863393,124.054811 C160.152357,123.882694 160.362714,123.604399 160.451286,123.270223 C160.549821,122.891341 160.471214,122.491223 160.237607,122.176046 C159.641964,121.367988 158.946679,120.759988 158.179429,120.363223 C158.395321,120.196694 158.55475,119.963105 158.631143,119.697105 C158.735214,119.332752 158.675429,118.943811 158.468393,118.626399 C157.440964,117.067282 155.972893,116.243576 154.2225,116.243576 C153.773,116.243576 153.2305,116.33187 152.536321,116.522988 C152.031464,116.67387 151.449107,116.885105 150.710643,117.187988 L149.811643,117.228223 C149.399786,117.247223 149.080929,117.599282 149.09975,118.015046 C149.117464,118.430811 149.457357,118.761635 149.879179,118.734811 L150.906607,118.688988 C150.991857,118.684517 151.076,118.665517 151.154607,118.633105 C151.903036,118.323517 152.477643,118.112282 152.954821,117.970341 C153.48625,117.825046 153.911393,117.751282 154.2225,117.751282 C155.402714,117.751282 156.339357,118.241929 157.075607,119.247811 L155.955179,119.756341 C155.943,119.761929 155.930821,119.768635 155.918643,119.773105 L153.0445,121.080752 C152.442214,121.354576 151.779036,121.474164 151.118071,121.488694 L150.402857,121.48087 C149.561429,121.479752 148.813,121.257341 148.16975,120.819223 C148.160893,120.812517 148.152036,120.806929 148.143179,120.801341 C147.962714,120.675046 147.791107,120.534223 147.62725,120.373282 C146.864429,119.633399 146.493536,118.752694 146.493536,117.679752 C146.493536,116.528576 147.206536,115.682517 148.669071,115.099105 C150.179214,114.502282 152.476536,114.199399 155.492393,114.199399 L155.9895,114.199399 C156.192107,114.199399 156.386964,114.115576 156.527571,113.969164 C156.668179,113.821635 156.743464,113.622694 156.735714,113.418164 L156.72575,113.159988 C156.72575,110.831929 155.955179,108.359694 154.435071,105.811458 C154.43175,105.804752 154.427321,105.799164 154.424,105.792458 L154.05975,105.163223 C153.428679,104.107046 153.108714,103.110105 153.108714,102.19587 C153.108714,101.335282 153.336786,100.605458 153.787393,100.024282 C154.201464,99.4878112 154.820357,99.0597523 155.627464,98.7456935 L156.033786,100.650164 C156.495464,102.816164 157.535071,104.815635 159.038571,106.43287 L162.577,110.233988 C163.624357,111.555046 164.327393,112.467046 164.786857,113.099635 C166.057857,114.90687 166.996714,115.933988 167.649929,116.234635 C168.292071,116.538635 169.763464,116.688399 172.143821,116.695105 C172.754964,118.453164 173.064964,120.270458 173.064964,122.096694 C173.064964,123.651341 172.78375,125.284223 172.229071,126.95287 L172.229071,126.95287 Z" id="Imported-Layers-Copy-13" </path>
        </g>
    </g>
</svg>
