<?xml version="1.0" encoding="UTF-8" standalone="no"?>
<svg width="68px" height="41px" viewBox="0 0 68 41" version="1.1" xmlns="http://www.w3.org/2000/svg" xmlns:xlink="http://www.w3.org/1999/xlink">
    <g id="Page-1" stroke="none" stroke-width="1" fill="none" fill-rule="evenodd">
        <g id="Iconography-02" transform="translate(-865.000000, -295.000000)" fill="#1A1918">
            <path d="M908.710855,299.64383 L908.463621,299.78234 C908.511281,300.020638 908.55894,300.276809 908.603621,300.532979 L908.621493,300.634255 C908.716813,301.148085 908.813621,301.69766 908.913408,302.275532 C907.987025,302.457234 907.132132,302.624043 906.393408,302.764043 C906.299579,302.784894 906.2266,302.799787 906.128302,302.81766 C906.035962,302.837021 905.9466,302.854894 905.857238,302.871277 L904.291919,303.179574 C883.676174,307.239574 883.458727,307.512128 883.202557,307.83234 C882.895749,308.227021 882.605323,308.597872 884.723196,317.455106 L884.949579,318.382979 L885.881919,318.199787 C886.048727,318.168511 886.22894,318.150638 886.41511,318.150638 C887.950642,318.150638 889.751281,319.234894 890.105749,321.050426 C890.280004,321.955957 890.05511,322.915106 889.465323,323.750638 C888.896387,324.550426 888.093621,325.102979 887.271493,325.265319 L886.334685,325.421702 L886.494047,326.589362 C886.517876,326.772553 886.540217,326.949787 886.562557,327.124043 C884.306174,327.552979 882.244898,327.943191 880.411493,328.284255 C880.299791,328.302128 880.180642,328.322979 880.074898,328.345319 L879.966174,328.364681 C879.832132,328.388511 879.699579,328.41234 879.575962,328.439149 C879.336174,328.480851 879.099366,328.524043 878.881919,328.570213 L877.601068,328.799574 C874.740004,329.32383 872.729366,329.67234 871.747876,329.81383 C871.442557,328.677447 870.967451,325.896809 870.55043,322.803404 C871.545323,322.405745 872.441919,321.681915 873.095749,320.752553 C874.001281,319.465745 874.346813,317.961489 874.065323,316.519787 C873.520217,313.71234 870.803621,312.029362 868.471281,312.01 C867.8666,309.439362 867.205323,306.36383 867.007238,305.023404 C872.111281,303.747021 902.732557,297.786596 907.924472,297.058298 C907.934898,297.107447 907.943834,297.161064 907.955749,297.21766 C907.969153,297.275745 907.987025,297.345745 908.00043,297.418723 L908.076387,297.771702 C908.089791,297.843191 908.106174,297.920638 908.118089,297.971277 C908.135962,298.090426 908.161281,298.19766 908.188089,298.318298 L908.320642,299.009362 C908.359366,299.210426 908.398089,299.427872 908.450217,299.695957 L908.710855,299.64383 L908.710855,299.64383 Z M891.084259,324.903404 C891.99277,323.622553 892.338302,322.119787 892.055323,320.670638 C891.510217,317.878085 888.798089,316.196596 886.461281,316.16383 C885.74043,313.094255 885.171493,310.374681 885.000217,309.177234 C888.014685,308.425106 899.837238,306.057021 909.745962,304.150638 L910.746813,303.961489 C918.393196,302.498936 923.993196,301.481702 925.910004,301.209149 C926.221281,302.554043 926.772344,305.614681 927.214685,308.247872 C925.043196,309.154894 923.178515,311.686809 923.720642,314.519574 C924.268727,317.321064 926.983834,319.004043 929.313196,319.027872 C929.867238,321.498723 930.53894,324.651702 930.751919,326.035319 C925.595749,327.34 894.882132,333.285532 889.736387,333.973617 C889.478727,332.998085 889.092983,330.825106 888.728089,328.279787 L888.541919,326.955745 C889.532344,326.555106 890.42894,325.832766 891.084259,324.903404 L891.084259,324.903404 Z M931.057238,317.741064 L930.839791,316.802766 L929.900004,316.990426 C929.733196,317.023191 929.555962,317.038085 929.371281,317.038085 C927.834259,317.038085 926.030642,315.95383 925.674685,314.141277 C925.29043,312.148511 926.890004,310.234681 928.523834,309.915957 L929.471068,309.732766 L929.319153,308.781064 C927.908727,300.20383 927.579579,299.770426 927.418727,299.558936 C927.211706,299.289362 926.910855,299.15383 926.523621,299.15383 C925.618089,299.15383 920.351706,300.075745 910.864472,301.895745 C909.839791,295.944255 909.571706,295.592766 909.425749,295.402128 C909.218727,295.135532 908.917876,295 908.529153,295 C906.835749,295 889.715536,298.355532 886.29894,299.028723 C865.687664,303.087234 865.468727,303.358298 865.214047,303.677021 C864.905749,304.071702 864.616813,304.444043 866.739153,313.305745 L866.9566,314.229149 L867.893408,314.048936 C868.060217,314.01766 868.24043,313.999787 868.423621,313.999787 C869.959153,313.999787 871.759791,315.084043 872.114259,316.898085 C872.291493,317.805106 872.0666,318.764255 871.475323,319.598298 C870.910855,320.398085 870.108089,320.949149 869.277025,321.11 L868.347664,321.27234 L868.471281,322.18383 C869.71043,331.794681 870.252557,331.794681 871.164047,331.794681 C872.115749,331.794681 883.926387,329.584468 886.826174,329.034894 C887.773408,335.632766 888.273834,335.945532 889.137664,335.945532 L889.155536,335.945532 C890.43043,335.945532 901.58277,333.908085 911.427451,331.991277 C932.348515,327.914894 932.436387,327.725745 932.700004,327.159787 C932.853408,326.821702 933.042557,326.403191 931.057238,317.741064 L931.057238,317.741064 Z" id="Imported-Layers-Copy-5"></path>
        </g>
    </g>
</svg>
