<?xml version="1.0" encoding="utf-8"?>
<svg version="1.1" id="Layer_1" xmlns="http://www.w3.org/2000/svg" xmlns:xlink="http://www.w3.org/1999/xlink" x="11px" y="10px"
	 viewBox="0 0 11 10" enable-background="new 0 0 11 10" xml:space="preserve">
<path fill="#30AF3F" d="M10.5,9.7c0.2-0.2,0.3-0.5,0.3-0.7c0-0.1,0-0.3-0.1-0.4c-0.1-0.1-0.2-0.3-0.3-0.5l-2.6-3L10.5,2
	c0.2-0.2,0.3-0.3,0.4-0.5C11,1.4,11,1.2,11,1.1c0-0.3-0.1-0.5-0.3-0.8C10.4,0.1,10.2,0,9.9,0C9.6,0,9.4,0.2,9.1,0.5L5.7,4.4
	C5.5,4.6,5.4,4.8,5.4,5.1c0,0.3,0.1,0.5,0.4,0.8l3.1,3.6C9.2,9.8,9.4,10,9.8,10C10,10,10.3,9.9,10.5,9.7 M5.1,9.7
	C5.3,9.5,5.5,9.2,5.5,9c0-0.1,0-0.3-0.1-0.4C5.3,8.4,5.2,8.3,5,8.1l-2.6-3L5.1,2c0.2-0.2,0.3-0.3,0.4-0.5c0.1-0.1,0.1-0.3,0.1-0.4
	c0-0.3-0.1-0.5-0.3-0.8C5,0.1,4.8,0,4.5,0S4,0.2,3.7,0.5L0.3,4.4C0.1,4.6,0,4.8,0,5.1c0,0.3,0.1,0.5,0.4,0.8l3.1,3.6
	C3.7,9.8,4,10,4.4,10C4.6,10,4.9,9.9,5.1,9.7"/>
</svg>
