<?xml version="1.0" encoding="UTF-8" standalone="no"?>
<svg width="24px" height="24px" viewBox="0 0 26 25" version="1.1" xmlns="http://www.w3.org/2000/svg" xmlns:xlink="http://www.w3.org/1999/xlink" xmlns:sketch="http://www.bohemiancoding.com/sketch/ns">
    <!-- Generator: Sketch 3.4.4 (17249) - http://www.bohemiancoding.com/sketch -->
    <title>Ui Library</title>
    <desc>Created with Sketch.</desc>
    <defs></defs>
    <g id="Page-1" stroke="none" stroke-width="1" fill="none" fill-rule="evenodd" sketch:type="MSPage">
        <g id="Ui-Library" sketch:type="MSArtboardGroup" transform="translate(-360.000000, -460.000000)">
            <rect id="Rectangle-272" fill-opacity="0.1" fill="#D8D8D8" sketch:type="MSShapeGroup" x="0" y="118" width="1440" height="1147"></rect>
            <path d="M385.108,472.404973 C385.108,479.033973 379.735,484.404973 373.108,484.404973 C366.48,484.404973 361.108,479.033973 361.108,472.404973 C361.108,465.777973 366.48,460.404973 373.108,460.404973 C379.735,460.404973 385.108,465.777973 385.108,472.404973" id="Fill-12" fill="#30AF40" sketch:type="MSShapeGroup"></path>
            <path d="M379.91,468.163973 C379.91,467.577973 379.466,467.150973 378.88,467.150973 C378.562,467.150973 378.276,467.339973 378.276,467.339973 C375.551,468.797973 371.208,473.726973 371.208,473.726973 C370.893,473.456973 368.958,471.682973 368.958,471.682973 L368.943,471.682973 L368.927,471.666973 C368.673,471.476973 368.42,471.332973 368.103,471.332973 C367.437,471.332973 366.914,471.871973 366.914,472.522973 C366.914,472.885973 367.168,473.251973 367.342,473.424973 C368.562,474.597973 369.893,476.166973 370.337,476.831973 C370.623,477.260973 370.955,477.609973 371.478,477.609973 C371.843,477.609973 372.128,477.450973 372.35,477.196973 C372.429,477.101973 372.524,476.990973 372.62,476.831973 C373.38,475.596973 376.026,471.556973 379.149,469.241973 C379.593,468.893973 379.91,468.655973 379.91,468.163973" id="Fill-13" fill="#FFFFFF" sketch:type="MSShapeGroup"></path>
        </g>
    </g>
</svg>
