<?xml version="1.0" encoding="utf-8"?>
<svg version="1.1" id="Layer_1" xmlns="http://www.w3.org/2000/svg" xmlns:xlink="http://www.w3.org/1999/xlink" x="0px" y="0px"
	 viewBox="0 0 20 20" enable-background="new 0 0 20 20" xml:space="preserve">
<g>
	<defs>
		<rect id="SVGID_1_" width="20" height="20"/>
	</defs>
	<clipPath id="SVGID_2_">
		<use xlink:href="#SVGID_1_"  overflow="visible"/>
	</clipPath>
	<path clip-path="url(#SVGID_2_)" fill="#30AF3F" d="M20,10c0,5.5-4.5,10-10,10S0,15.5,0,10S4.5,0,10,0S20,4.5,20,10"/>
	<path clip-path="url(#SVGID_2_)" fill="#FFFFFF" d="M15.7,6.5c0-0.5-0.4-0.8-0.9-0.8c-0.3,0-0.5,0.2-0.5,0.2
		C12,7,8.4,11.1,8.4,11.1c-0.3-0.2-1.9-1.7-1.9-1.7h0l0,0C6.3,9.2,6.1,9.1,5.8,9.1c-0.6,0-1,0.4-1,1c0,0.3,0.2,0.6,0.4,0.8
		c1,1,2.1,2.3,2.5,2.8c0.2,0.4,0.5,0.6,1,0.6c0.3,0,0.5-0.1,0.7-0.3c0.1-0.1,0.1-0.2,0.2-0.3c0.6-1,2.8-4.4,5.4-6.3
		C15.4,7.1,15.7,6.9,15.7,6.5"/>
</g>
</svg>
