<?xml version="1.0" encoding="UTF-8" standalone="no"?>
<svg width="25px" height="25px" viewBox="0 0 25 25" version="1.1" xmlns="http://www.w3.org/2000/svg" xmlns:xlink="http://www.w3.org/1999/xlink"> 
    <g id="GUI-Styleguide" stroke="none" stroke-width="1" fill="none" fill-rule="evenodd">
        <g id="Icons---Devices-Copy-4" transform="translate(-121.000000, -322.000000)" fill="#FFFFFF">
            <path d="M146,334.5 C146,341.404167 140.403333,347 133.5,347 C126.596667,347 121,341.404167 121,334.5 C121,327.5975 126.596667,322 133.5,322 C140.403333,322 146,327.5975 146,334.5 Z M141.960833,329.791667 C141.960833,329.03 141.3825,328.471667 140.62,328.471667 C140.205833,328.471667 139.834167,328.719167 139.834167,328.719167 C136.285833,330.6175 130.630833,337.035833 130.630833,337.035833 C130.22,336.684167 127.701667,334.373333 127.701667,334.373333 L127.680833,334.373333 L127.660833,334.353333 C127.33,334.106667 127,333.919167 126.5875,333.919167 C125.72,333.919167 125.039167,334.62 125.039167,335.4675 C125.039167,335.941667 125.37,336.4175 125.596667,336.644167 C127.185833,338.170833 128.918333,340.213333 129.496667,341.079167 C129.869167,341.6375 130.301667,342.09 130.9825,342.09 C131.4575,342.09 131.828333,341.884167 132.1175,341.555 C132.22,341.431667 132.343333,341.286667 132.469167,341.079167 C133.459167,339.470833 136.905,334.209167 140.97,331.195833 C141.548333,330.7425 141.960833,330.4325 141.960833,329.791667 Z" id="positive-notificiation-icon"></path>
        </g>
    </g>
</svg>
