<?xml version="1.0" encoding="utf-8"?>
<!-- Generator: Adobe Illustrator 18.1.1, SVG Export Plug-In . SVG Version: 6.00 Build 0)  -->
<svg width="24px" height="24px" version="1.1" id="Layer_1" xmlns="http://www.w3.org/2000/svg" xmlns:xlink="http://www.w3.org/1999/xlink" x="0px" y="0px"
	 viewBox="0 0 20 20" enable-background="new 0 0 20 20" xml:space="preserve">
<g>
	<defs>
		<rect id="SVGID_1_" width="20" height="20"/>
	</defs>
	<clipPath id="SVGID_2_">
		<use xlink:href="#SVGID_1_"  overflow="visible"/>
	</clipPath>
	<path clip-path="url(#SVGID_2_)" fill="#EF3B36" d="M20,10c0,5.5-4.5,10-10,10C4.5,20,0,15.5,0,10C0,4.5,4.5,0,10,0
		C15.5,0,20,4.5,20,10"/>
	<path clip-path="url(#SVGID_2_)" fill="#FFFFFF" d="M11,15.9c0.3-0.3,0.4-0.6,0.4-1c0-0.2,0-0.4-0.1-0.5c-0.1-0.2-0.2-0.3-0.3-0.4
		c-0.1-0.1-0.3-0.2-0.4-0.3c-0.2-0.1-0.3-0.1-0.5-0.1c-0.2,0-0.4,0-0.5,0.1C9.3,13.7,9.2,13.8,9,14c-0.1,0.1-0.2,0.3-0.3,0.4
		c-0.1,0.2-0.1,0.3-0.1,0.5c0,0.4,0.1,0.7,0.4,1c0.3,0.3,0.6,0.4,1,0.4C10.4,16.3,10.7,16.2,11,15.9 M11,11.6l0.3-4.8V4.7
		c0-0.3-0.1-0.6-0.4-0.7c-0.2-0.2-0.6-0.2-1-0.2C9.6,3.7,9.3,3.8,9.1,4C8.8,4.1,8.7,4.4,8.7,4.7v2.1L9,11.6c0,0.6,0.4,0.9,1,0.9
		C10.7,12.4,11,12.1,11,11.6"/>
</g>
</svg>
