<?xml version="1.0" encoding="utf-8"?>
<svg version="1.1" id="Layer_1" xmlns="http://www.w3.org/2000/svg" xmlns:xlink="http://www.w3.org/1999/xlink" x="0px" y="0px"
	 fill="#2C3E72" viewBox="2 0 305 37" enable-background="2 0 305 37" xml:space="preserve">
<g>
	<path d="M288.369-507.663c-3.797,0-6.877-3.077-6.881-6.874h-12.619c0,3.797-3.082,6.874-6.877,6.874c-3.799,0-6.873-3.077-6.881-6.874h-12.613c-0.006,3.797-3.086,6.874-6.881,6.874c-3.801,0-6.877-3.077-6.881-6.874h-12.617c-0.002,3.797-3.08,6.874-6.877,6.874c-3.801,0-6.879-3.077-6.883-6.874H188.6c-0.014,18.993-15.41,34.39-34.404,34.39s-34.394-15.396-34.405-34.39h-13.784c-0.033,3.771-3.096,6.821-6.874,6.821c-3.781,0-6.843-3.05-6.876-6.821H79.631c-0.032,3.771-3.096,6.821-6.876,6.821c-3.778,0-6.845-3.05-6.874-6.821H53.256c-0.035,3.771-3.096,6.821-6.876,6.821s-6.845-3.05-6.878-6.821H26.878c-0.034,3.771-3.096,6.821-6.874,6.821c-3.781,0-6.845-3.05-6.877-6.821H0V36h13.131v-0.01c0-3.799,3.08-6.881,6.88-6.881c3.8,0,6.883,3.082,6.883,6.881l-0.001,0.008L39.506,36v-0.01c0-3.799,3.079-6.881,6.882-6.881c3.799,0,6.879,3.082,6.879,6.881v0.008L65.885,36l-0.004-0.01c0-3.799,3.083-6.881,6.884-6.881c3.802,0,6.88,3.082,6.88,6.881l-0.002,0.008L92.26,36v-0.01c0-3.799,3.081-6.881,6.88-6.881c3.802,0,6.879,3.082,6.879,6.881v0.008L119.781,36c0-19.002,15.402-34.406,34.404-34.406c19,0,34.402,15.404,34.402,34.406h13.785c0.023-3.781,3.092-6.84,6.877-6.84s6.852,3.059,6.877,6.84h12.619c0.025-3.781,3.092-6.84,6.881-6.84c3.783,0,6.854,3.059,6.875,6.84h12.623c0.023-3.781,3.09-6.84,6.877-6.84c3.785,0,6.854,3.059,6.877,6.84H281.5c0.023-3.781,3.092-6.84,6.879-6.84c3.785,0,6.852,3.059,6.875,6.84H309v-550.537h-13.752C295.244-510.74,292.168-507.663,288.369-507.663"></path>
</g>
</svg>
