<?xml version="1.0" encoding="UTF-8" standalone="no"?>
<svg width="25px" height="26px" viewBox="0 0 25 26" version="1.1" xmlns="http://www.w3.org/2000/svg" xmlns:xlink="http://www.w3.org/1999/xlink">
    <g id="GUI-Styleguide" stroke="none" stroke-width="1" fill="none" fill-rule="evenodd">
        <g id="Icons---Devices-Copy-4" transform="translate(-120.000000, -600.000000)" fill="#FFFFFF">
            <path d="M145,613.039 C145,619.943167 139.403333,625.539 132.5,625.539 C125.5975,625.539 120,619.943167 120,613.039 C120,606.1365 125.5975,600.539 132.5,600.539 C139.403333,600.539 145,606.1365 145,613.039 Z M131.305,605.674833 C130.976667,606.004 130.811667,606.402333 130.811667,606.869833 C130.811667,607.104 130.855,607.325667 130.944167,607.539 C131.031667,607.749833 131.151667,607.932333 131.305,608.0865 C131.459167,608.239833 131.6375,608.359833 131.8425,608.449 C132.046667,608.535667 132.266667,608.579 132.5,608.579 C132.734167,608.579 132.9525,608.535667 133.1575,608.449 C133.3625,608.359833 133.541667,608.239833 133.694167,608.0865 C133.8475,607.932333 133.969167,607.749833 134.056667,607.539 C134.144167,607.325667 134.1875,607.104 134.1875,606.869833 C134.1875,606.402333 134.0225,606.004 133.694167,605.674833 C133.365,605.345667 132.9675,605.182333 132.5,605.182333 C132.0325,605.182333 131.634167,605.345667 131.305,605.674833 Z M131.206667,611.079 L130.855,617.040667 L130.855,619.692333 C130.855,620.100667 131.005,620.404833 131.305,620.602333 C131.605,620.799833 132.0025,620.897333 132.5,620.897333 C132.996667,620.897333 133.391667,620.799833 133.684167,620.602333 C133.976667,620.404833 134.121667,620.100667 134.121667,619.692333 L134.121667,617.040667 L133.7925,611.099833 C133.749167,610.369833 133.3175,610.004833 132.5,610.004833 C131.681667,610.004833 131.25,610.362333 131.206667,611.079 Z" id="warning-notificiation-icon" transform="translate(132.500000, 613.039000) rotate(-180.000000) translate(-132.500000, -613.039000) "></path>
        </g>
    </g>
</svg>
