<?xml version="1.0" encoding="utf-8"?>
<!-- Generator: Adobe Illustrator 18.1.1, SVG Export Plug-In . SVG Version: 6.00 Build 0)  -->
<svg version="1.1" id="Layer_1" xmlns="http://www.w3.org/2000/svg" xmlns:xlink="http://www.w3.org/1999/xlink" x="0px" y="0px"
	 viewBox="0 0 12 10" enable-background="new 0 0 12 10" xml:space="preserve">
<path fill="#30AF3F" d="M12,1c0-0.6-0.4-1-1-1c-0.3,0-0.6,0.2-0.6,0.2C8,1.6,4,6.3,4,6.3c-0.3-0.3-2.1-2-2.1-2h0l0,0
	C1.6,4.1,1.4,4,1.1,4C0.5,4,0,4.5,0,5.1C0,5.5,0.2,5.8,0.4,6c1.1,1.1,2.4,2.6,2.8,3.3C3.4,9.7,3.7,10,4.2,10C4.6,10,4.8,9.8,5,9.6
	c0.1-0.1,0.2-0.2,0.2-0.3c0.7-1.2,3.1-5,6-7.3C11.7,1.7,12,1.4,12,1"/>
</svg>
